<?xml version="1.0" standalone="no"?>
<!DOCTYPE svg PUBLIC "-//W3C//DTD SVG 20010904//EN"
 "http://www.w3.org/TR/2001/REC-SVG-20010904/DTD/svg10.dtd">
<svg version="1.0" xmlns="http://www.w3.org/2000/svg"
 width="700.000000pt" height="700.000000pt" viewBox="0 0 700.000000 700.000000"
 preserveAspectRatio="xMidYMid meet">
<metadata>
Created by potrace 1.14, written by Peter Selinger 2001-2017
</metadata>
<g transform="translate(0.000000,700.000000) scale(0.100000,-0.100000)"
fill="#000000" stroke="none">
<path d="M3995 6986 c-88 -33 -150 -92 -181 -172 -18 -47 -19 -90 -19 -939 0
-489 3 -920 8 -957 68 -610 507 -1147 1094 -1337 184 -60 301 -77 528 -75 144
2 192 7 350 39 39 8 199 61 244 82 115 51 328 174 351 202 3 4 19 17 35 30
101 77 248 240 330 365 101 156 188 355 221 507 40 190 39 152 39 1124 l0 930
-23 47 c-27 54 -98 123 -150 145 -56 24 -156 25 -213 4 -27 -11 -157 -100
-305 -211 -142 -107 -262 -193 -268 -193 -6 0 -27 7 -46 16 -72 33 -246 82
-330 93 -19 2 -64 8 -100 13 -71 9 -298 7 -370 -4 -38 -6 -124 -23 -204 -40
-28 -6 -198 -65 -217 -76 -12 -6 -45 14 -130 77 -63 47 -125 94 -139 104 -14
10 -77 58 -140 106 -63 48 -135 96 -160 108 -51 23 -158 29 -205 12z"/>
<path d="M197 5216 c-123 -44 -199 -156 -193 -288 4 -75 24 -124 74 -180 39
-43 140 -98 181 -98 57 0 213 -45 296 -85 225 -110 317 -288 317 -610 0 -235
-68 -423 -278 -768 -48 -78 -124 -203 -169 -278 -228 -374 -363 -709 -401
-994 -3 -22 -9 -69 -13 -105 -15 -115 -6 -384 17 -490 51 -239 155 -455 304
-635 225 -269 567 -484 949 -593 97 -28 125 -35 189 -47 14 -3 36 -7 50 -10
14 -3 43 -8 65 -10 22 -3 65 -9 95 -14 30 -5 709 -10 1521 -10 l1466 -2 -2
363 c-3 359 -6 399 -41 533 -21 77 -30 100 -80 204 -151 312 -469 560 -804
627 -83 16 -171 83 -210 160 -36 69 -35 179 2 255 47 95 139 158 237 163 105
5 355 -74 541 -171 122 -64 164 -92 280 -184 209 -165 387 -392 499 -634 34
-73 86 -217 102 -279 5 -23 11 -45 13 -51 1 -5 7 -32 11 -60 5 -27 10 -52 10
-55 1 -3 5 -32 9 -65 4 -33 9 -69 11 -80 2 -11 4 -179 4 -373 l1 -353 768 3
767 3 47 23 c100 50 160 143 164 255 2 89 -22 151 -86 215 -72 72 -116 84
-322 86 l-172 1 -1 1280 c-1 704 -3 1286 -3 1294 -2 10 -6 10 -14 3 -7 -6 -56
-29 -108 -52 -291 -129 -594 -194 -895 -192 -114 0 -243 9 -320 23 -33 5 -71
12 -85 14 -223 38 -529 157 -737 287 -140 87 -302 216 -410 326 -91 93 -229
262 -269 330 -24 41 -29 40 -189 -37 -579 -281 -1069 -736 -1402 -1301 -68
-116 -194 -375 -238 -490 -20 -52 -40 -104 -45 -115 -33 -77 -138 -447 -155
-547 -3 -18 -8 -40 -10 -48 -2 -8 -6 -28 -9 -45 -3 -16 -12 -70 -20 -120 -8
-49 -18 -117 -21 -150 -4 -33 -8 -71 -10 -85 -3 -13 -7 -85 -11 -160 -3 -74
-9 -138 -13 -143 -10 -11 -178 51 -290 107 -177 88 -328 213 -429 354 -47 66
-110 211 -128 293 -28 133 -24 316 11 501 28 142 145 425 240 578 12 19 24 42
28 50 4 8 32 56 63 105 321 514 427 737 484 1015 39 191 31 479 -18 676 -38
152 -119 327 -202 436 -46 60 -164 173 -232 221 -69 49 -236 137 -260 137 -8
0 -18 4 -24 8 -15 14 -140 49 -251 72 -116 23 -192 25 -246 6z"/>
</g>
</svg>
